<?xml version="1.0" encoding="UTF-8" standalone="no"?>
<!-- Uploaded to: SVG Repo, www.svgrepo.com, Transformed by: SVG Repo Mixer Tools -->

<svg
   width="645.89532"
   height="491.43985"
   viewBox="0 0 826.74602 629.04301"
   class="icon"
   version="1.1"
   fill="#000000"
   id="svg15"
   sodipodi:docname="q.svg"
   inkscape:version="1.3.2 (1:1.3.2+202311252150+091e20ef0f)"
   xmlns:inkscape="http://www.inkscape.org/namespaces/inkscape"
   xmlns:sodipodi="http://sodipodi.sourceforge.net/DTD/sodipodi-0.dtd"
   xmlns="http://www.w3.org/2000/svg"
   xmlns:svg="http://www.w3.org/2000/svg">
  <defs
     id="defs15" />
  <sodipodi:namedview
     id="namedview15"
     pagecolor="#ffffff"
     bordercolor="#666666"
     borderopacity="1.0"
     inkscape:showpageshadow="2"
     inkscape:pageopacity="0.0"
     inkscape:pagecheckerboard="0"
     inkscape:deskcolor="#d1d1d1"
     inkscape:zoom="0.58530709"
     inkscape:cx="211.00035"
     inkscape:cy="273.36078"
     inkscape:window-width="1920"
     inkscape:window-height="1037"
     inkscape:window-x="0"
     inkscape:window-y="0"
     inkscape:window-maximized="1"
     inkscape:current-layer="SVGRepo_iconCarrier" />
  <g
     id="SVGRepo_bgCarrier"
     stroke-width="0"
     transform="translate(-97.768,-232.877)" />
  <g
     id="SVGRepo_tracerCarrier"
     stroke-linecap="round"
     stroke-linejoin="round"
     transform="translate(-97.768,-232.877)" />
  <g
     id="SVGRepo_iconCarrier"
     transform="translate(-97.768,-232.877)">
    <path
       d="m 911.405,372.591 v 339.597 l -102.581,-0.632 c 0,0 -104.232,122.382 -103.036,122.194 1.196,-0.188 0,-123.314 0,-123.314 l -269.809,1.751 V 372.591 Z"
       fill="#002c66"
       id="path6" />
    <path
       d="M 699.002,722.731 H 423.641 V 361.913 H 922.085 V 722.731 H 813.782 L 699.002,855.4 Z M 900.727,383.271 H 444.999 V 701.372 H 720.36 v 96.697 l 83.66,-96.697 h 96.707 z"
       fill="#ffffff"
       id="path7" />
    <path
       d="M 696.574,861.92 V 725.159 H 421.212 V 359.484 H 924.514 V 725.159 H 814.892 Z M 426.07,720.302 H 701.431 V 848.881 L 812.671,720.302 H 919.656 V 364.342 H 426.07 Z m 291.862,84.287 V 703.801 H 442.571 V 380.843 H 903.156 V 703.801 H 805.131 Z M 447.428,698.943 h 275.361 v 92.606 l 80.121,-92.606 h 95.388 V 385.7 h -450.87 z"
       fill="#ffffff"
       id="path8" />
    <path
       d="M 658.299,372.903 V 245.987 H 110.875 v 344.052 h 87.393 l 88.483,100.92 -1.169,-100.92 H 433.519 V 372.903 Z"
       fill="#002c66"
       id="path9" />
    <path
       d="M 289.99,706.907 187.59,600.72 H 100.196 V 235.306 H 668.977 V 383.584 H 444.197 V 600.72 H 290.464 Z M 121.555,579.362 h 75.819 l 74.253,77.834 0.228,-77.834 H 422.838 V 362.226 H 647.619 V 256.664 H 121.555 Z"
       fill="#ffffff"
       id="path10" />
    <path
       d="M 292.392,712.896 186.559,603.148 H 97.768 V 232.877 H 671.407 V 386.013 H 446.625 V 603.149 H 292.882 Z M 102.625,598.291 h 85.997 l 98.966,102.627 0.458,-102.627 H 441.767 V 381.155 H 666.548 V 237.734 H 102.625 Z m 171.413,64.95 -77.703,-81.451 H 119.127 V 254.235 H 650.049 V 364.654 H 425.267 V 581.79 H 274.276 Z M 123.983,576.933 h 74.43 l 70.802,74.217 0.218,-74.217 H 420.41 V 359.797 H 645.19 V 259.093 H 123.983 Z"
       fill="#ffffff"
       id="path11" />
    <path
       d="m 320.956,450.316 c 3.896,2.639 8.151,5.2 12.767,7.688 4.615,2.487 7.671,4.466 9.17,5.934 1.498,1.47 2.248,3.552 2.248,6.249 0,1.917 -0.885,3.835 -2.652,5.754 -1.769,1.917 -3.911,2.877 -6.428,2.877 -2.039,0 -4.511,-0.66 -7.417,-1.979 -2.908,-1.318 -6.324,-3.236 -10.25,-5.754 -3.926,-2.518 -8.227,-5.453 -12.902,-8.811 -8.691,4.435 -19.361,6.653 -32.007,6.653 -10.25,0 -19.436,-1.634 -27.557,-4.9 -8.123,-3.267 -14.94,-7.971 -20.454,-14.115 -5.515,-6.144 -9.665,-13.441 -12.452,-21.893 -2.787,-8.452 -4.181,-17.651 -4.181,-27.602 0,-10.129 1.453,-19.421 4.36,-27.872 2.907,-8.451 7.117,-15.644 12.632,-21.578 5.514,-5.934 12.228,-10.474 20.139,-13.621 7.912,-3.146 16.903,-4.72 26.973,-4.72 13.666,0 25.399,2.773 35.199,8.316 9.8,5.545 17.217,13.428 22.252,23.646 5.035,10.221 7.552,22.223 7.552,36.009 0,20.92 -5.664,37.492 -16.992,49.719 z m -20.949,-14.565 c 3.716,-4.255 6.458,-9.29 8.227,-15.104 1.768,-5.812 2.652,-12.556 2.652,-20.229 0,-9.65 -1.559,-18.012 -4.675,-25.085 -3.117,-7.071 -7.567,-12.421 -13.351,-16.048 -5.785,-3.626 -12.423,-5.439 -19.915,-5.439 -5.335,0 -10.265,1.004 -14.79,3.012 -4.526,2.009 -8.422,4.931 -11.688,8.766 -3.268,3.837 -5.844,8.736 -7.732,14.7 -1.888,5.965 -2.832,12.663 -2.832,20.095 0,15.164 3.536,26.837 10.609,35.019 7.072,8.182 16.004,12.272 26.792,12.272 4.435,0 8.991,-0.929 13.666,-2.787 -2.818,-2.098 -6.338,-4.194 -10.564,-6.294 -4.226,-2.097 -7.118,-3.715 -8.676,-4.854 -1.559,-1.138 -2.337,-2.756 -2.337,-4.855 0,-1.798 0.749,-3.385 2.248,-4.765 1.498,-1.378 3.147,-2.068 4.945,-2.068 5.453,-0.002 14.594,4.555 27.421,13.664 z"
       fill="#ffffff"
       id="path12" />
    <path
       d="m 336.06,481.246 c -2.409,0 -5.164,-0.718 -8.421,-2.195 -3,-1.36 -6.552,-3.353 -10.557,-5.922 -3.621,-2.321 -7.593,-5.021 -11.822,-8.034 -8.756,4.156 -19.437,6.262 -31.775,6.262 -10.513,0 -20.089,-1.708 -28.463,-5.076 -8.433,-3.391 -15.618,-8.353 -21.355,-14.746 -5.713,-6.364 -10.071,-14.02 -12.951,-22.754 -2.855,-8.657 -4.303,-18.2 -4.303,-28.362 0,-10.354 1.511,-19.998 4.493,-28.662 3.004,-8.734 7.428,-16.285 13.149,-22.441 5.734,-6.171 12.807,-10.957 21.021,-14.225 8.163,-3.246 17.539,-4.892 27.871,-4.892 14.024,0 26.269,2.904 36.395,8.631 10.186,5.764 18.003,14.068 23.235,24.687 5.177,10.51 7.802,22.986 7.802,37.082 0,20.268 -5.297,36.813 -15.753,49.233 a 151.194,151.194 0 0 0 10.25,6.035 c 4.859,2.619 8.038,4.691 9.718,6.336 1.976,1.939 2.977,4.625 2.977,7.984 0,2.536 -1.108,5.026 -3.294,7.399 -2.243,2.429 -5.007,3.66 -8.217,3.66 z m -30.354,-21.808 1.202,0.863 c 4.605,3.307 8.91,6.247 12.796,8.738 3.809,2.443 7.154,4.323 9.941,5.587 2.578,1.169 4.736,1.762 6.415,1.762 1.849,0 3.324,-0.666 4.643,-2.095 1.333,-1.447 2.009,-2.829 2.009,-4.107 0,-2.035 -0.497,-3.512 -1.52,-4.516 -0.913,-0.895 -3.152,-2.581 -8.622,-5.529 -4.671,-2.517 -9.038,-5.146 -12.977,-7.814 l -2.342,-1.586 1.922,-2.075 c 10.846,-11.707 16.346,-27.88 16.346,-48.068 0,-13.345 -2.457,-25.099 -7.302,-34.936 -4.793,-9.726 -11.949,-17.331 -21.27,-22.604 -9.387,-5.31 -20.827,-8.002 -34.003,-8.002 -9.714,0 -18.487,1.53 -26.075,4.548 -7.539,2.999 -14.018,7.379 -19.257,13.018 -5.257,5.656 -9.333,12.626 -12.115,20.715 -2.806,8.154 -4.229,17.267 -4.229,27.082 0,9.645 1.365,18.675 4.059,26.841 2.669,8.093 6.69,15.169 11.953,21.031 5.237,5.836 11.816,10.372 19.553,13.484 7.795,3.135 16.762,4.725 26.651,4.725 12.198,0 22.595,-2.149 30.903,-6.388 z m -32.402,-9.3 c -11.477,0 -21.109,-4.412 -28.63,-13.113 -7.432,-8.596 -11.2,-20.912 -11.2,-36.606 0,-7.646 0.991,-14.654 2.945,-20.828 1.978,-6.247 4.736,-11.477 8.198,-15.541 3.489,-4.098 7.712,-7.264 12.552,-9.411 4.816,-2.137 10.124,-3.221 15.775,-3.221 7.919,0 15.053,1.955 21.205,5.811 6.175,3.872 10.981,9.635 14.283,17.126 3.239,7.353 4.882,16.122 4.882,26.064 0,7.875 -0.928,14.918 -2.757,20.936 -1.861,6.118 -4.795,11.5 -8.721,15.995 l -1.444,1.654 -1.791,-1.271 c -15.383,-10.925 -22.638,-13.218 -26.016,-13.218 -1.177,0 -2.257,0.467 -3.3,1.427 -0.998,0.919 -1.463,1.865 -1.463,2.978 0,1.325 0.414,2.217 1.34,2.894 1.44,1.054 4.24,2.614 8.324,4.641 4.339,2.156 8.018,4.351 10.935,6.521 l 3.49,2.598 -4.043,1.607 c -4.94,1.962 -9.84,2.957 -14.564,2.957 z m -0.359,-93.864 c -4.969,0 -9.613,0.943 -13.805,2.803 -4.169,1.851 -7.811,4.583 -10.824,8.121 -3.04,3.568 -5.484,8.231 -7.266,13.858 -1.804,5.698 -2.719,12.213 -2.719,19.361 0,14.494 3.371,25.741 10.018,33.43 6.649,7.693 14.812,11.433 24.955,11.433 2.662,0 5.403,-0.37 8.191,-1.103 a 82.858,82.858 0 0 0 -6.17,-3.375 c -4.391,-2.179 -7.345,-3.837 -9.03,-5.069 -2.179,-1.59 -3.332,-3.947 -3.332,-6.815 0,-2.496 1.02,-4.7 3.031,-6.552 1.955,-1.798 4.172,-2.71 6.59,-2.71 5.743,0 14.578,4.194 26.975,12.812 2.786,-3.618 4.918,-7.822 6.35,-12.529 1.69,-5.558 2.547,-12.126 2.547,-19.521 0,-9.265 -1.503,-17.375 -4.469,-24.105 -2.903,-6.586 -7.082,-11.623 -12.419,-14.97 -5.364,-3.364 -11.631,-5.069 -18.623,-5.069 z"
       fill="#ffffff"
       id="path13" />
    <path
       d="M 624.43,637.357 591.257,623.28 678.812,416.791 765.793,623.327 732.571,637.31 678.695,509.366 Z"
       fill="#ffffff"
       id="path14" />
    <path
       d="m 632.618,552.594 h 88.915 v 36.036 h -88.915 z"
       fill="#ffffff"
       id="path15" />
  </g>
</svg>
